# xmcd CD database file
#
# Track frame offsets:
#	225
#	13593
#	25108
#	37836
#	50057
#	63465
#	76625
#	89864
#	102549
#	116394
#	130554
#	142512
#	154418
#	166024
#	178230
#	194805
#	209311
#	222000
#	233383
#	245760
#	259683
#	270983
#	285994
#
# Disc length: 4006 seconds
#
# Revision: 0
# Processed by: cddbd v1.5.2PL0 Copyright (c) Steve Scherf et al.
# Submitted via: jetAudio 7
#
DISCID=360fa317
DTITLE=Chet Atkins - Solid Gold '68 and Solid Gold '69
DYEAR=1900
DGENRE=Country
TTITLE0=Slick
TTITLE1=Lady Madonna
TTITLE2=Prayer Meetin'
TTITLE3=Sealed With A Kiss
TTITLE4=Stoned Soul Picnic
TTITLE5=The Sound Of Silence
TTITLE6=Mrs. Robinson
TTITLE7=Harper Valley P.T.A.
TTITLE8=Light My Fire
TTITLE9=Sleep Safe And Warm
TTITLE10=Grazing In The Grass
TTITLE11=It Never Hurts To Ask
TTITLE12=Both Sides Now
TTITLE13=Son Of A Preacher Man
TTITLE14=My Way
TTITLE15=Blackbird
TTITLE16=I'll Never Fall In Love Again
TTITLE17=So What's New
TTITLE18=Folsom Prison Blues
TTITLE19=Jean
TTITLE20=Love Theme From ''Romeo And Juliet''
TTITLE21=Hey Jude
TTITLE22=Aquarius
EXTD=©2016 Vocalion Ltd. CDLK-4583
EXTT0=
EXTT1=
EXTT2=
EXTT3=
EXTT4=
EXTT5=
EXTT6=
EXTT7=
EXTT8=
EXTT9=
EXTT10=
EXTT11=
EXTT12=
EXTT13=
EXTT14=
EXTT15=
EXTT16=
EXTT17=
EXTT18=
EXTT19=
EXTT20=
EXTT21=
EXTT22=
PLAYORDER=
